<svg xmlns="http://www.w3.org/2000/svg" viewBox="0 0 32 32" fill="none">
  <defs>
    <linearGradient id="bubble-grad" x1="0%" y1="100%" x2="100%" y2="0%">
      <stop offset="0%" stop-color="#6366f1" />
      <stop offset="100%" stop-color="#ec4899" />
    </linearGradient>
  </defs>
  
  <!-- 1. 단어(대화)를 의미하는 플랫 말풍선 배경 -->
  <path d="M26 4H6C4.34 4 3 5.34 3 7 V19C3 20.66 4.34 22 6 22H11L16 27L21 22H26C27.66 22 29 20.66 29 19V7C29 5.34 27.66 4 26 4Z" fill="url(#bubble-grad)" />
  
  <!-- 2. 추측(유추)을 의미하는 도톰한 물음표 (?) -->
  <path d="M16 8C14.3 8 13.5 9 13.5 10H15.1C15.1 9.7 15.3 9.3 16 9.3C16.7 9.3 17 9.7 17 10.2C17 11 15.5 11.5 15.5 13.5H16.8C16.8 12.2 18.2 11.7 18.2 10.2C18.2 8.8 17.2 8 16 8Z" fill="#ffffff" />
  <rect x="15.35" y="15" width="1.4" height="1.4" rx="0.7" fill="#ffffff" />
</svg>
