<svg xmlns="http://www.w3.org/2000/svg" viewBox="0 0 32 32" fill="none">
  <defs>
    <linearGradient id="grad" x1="0%" y1="100%" x2="100%" y2="0%">
      <stop offset="0%" stop-color="#6366f1" />
      <stop offset="100%" stop-color="#ec4899" />
    </linearGradient>
  </defs>
  <!-- K 모양의 불꽃 심볼 (K의 세 가지 획을 플랫 불꽃 실루엣으로 디자인) -->
  <!-- 1. K의 세로 기둥 획 (메인 불꽃) -->
  <path d="M10 4C10 4 7 13 7 19C7 24 10.5 27 13 27C11.5 24.5 11 20 12 15C13 10 15 4 15 4Z" fill="url(#grad)" />
  <!-- 2. K의 우상향 대각선 획 (타오르는 불티) -->
  <path d="M13.5 17C13.5 17 18 12 23 9.5C20.5 12.5 18 16 18 18C18 20.5 19.5 22 20 24.5C18 22.5 15 20 13.5 17Z" fill="url(#grad)" opacity="0.95" />
  <!-- 3. K의 우하향 대각선 획 (불꽃 꼬리) -->
  <path d="M18 18C18.5 18 24 22.5 26 25.5C23 25.5 20 23.5 19 22.5C18 21.5 17.5 19 18 18Z" fill="url(#grad)" opacity="0.9" />
</svg>
